HIERARCHY
ROOT hip
{
	OFFSET 0.000000 0.000000 0.000000 
	CHANNELS 6 Xposition Yposition Zposition Xrotation Zrotation Yrotation
	JOINT abdomen
	{
		OFFSET 0.000000 3.402643 0.000000 
		CHANNELS 3 Xrotation Zrotation Yrotation
		JOINT chest
		{
			OFFSET 0.000000 8.438565 -0.680529 
			CHANNELS 3 Xrotation Zrotation Yrotation
			JOINT neck
			{
				OFFSET 0.000000 10.207942 -0.272212 
				CHANNELS 3 Xrotation Zrotation Yrotation
				JOINT head
				{
					OFFSET 0.000000 3.130431 0.000000 
					CHANNELS 3 Xrotation Zrotation Yrotation
					End Site
					{
						OFFSET 0.000000 3.130435 0.000000 
					}
				}
			}
			JOINT lCollar
			{
				OFFSET 3.470700 6.669187 -0.816635 
				CHANNELS 3 Yrotation Zrotation Xrotation
				JOINT lShldr
				{
					OFFSET 3.198488 0.000000 0.000000 
					CHANNELS 3 Zrotation Yrotation Xrotation
					JOINT lForeArm
					{
						OFFSET 10.139888 0.000000 0.000000 
						CHANNELS 3 Yrotation Zrotation Xrotation
						JOINT lHand
						{
							OFFSET 8.370511 0.000000 0.000000 
							CHANNELS 3 Zrotation Yrotation Xrotation
							End Site
							{
								OFFSET 4.083176 0.000000 0.000000 
							}
						}
					}
				}
			}
			JOINT rCollar
			{
				OFFSET -3.470700 6.669187 -0.816635 
				CHANNELS 3 Yrotation Zrotation Xrotation
				JOINT rShldr
				{
					OFFSET -3.198488 0.000000 0.000000 
					CHANNELS 3 Zrotation Yrotation Xrotation
					JOINT rForeArm
					{
						OFFSET -10.139888 0.000000 0.000000 
						CHANNELS 3 Yrotation Zrotation Xrotation
						JOINT rHand
						{
							OFFSET -8.370511 0.000000 0.000000 
							CHANNELS 3 Zrotation Yrotation Xrotation
							End Site
							{
								OFFSET -4.083176 0.000000 0.000000 
							}
						}
					}
				}
			}
		}
	}
	JOINT lThigh
	{
		OFFSET 5.308129 -1.633274 1.361059 
		CHANNELS 3 Xrotation Zrotation Yrotation
		JOINT lShin
		{
			OFFSET -2.041588 -20.007561 0.000000 
			CHANNELS 3 Xrotation Zrotation Yrotation
			JOINT lFoot
			{
				OFFSET 0.000000 -19.190928 -1.224953 
				CHANNELS 3 Xrotation Yrotation Zrotation
				End Site
				{
					OFFSET 0.000000 -2.449906 4.627600 
				}
			}
		}
	}
	JOINT rThigh
	{
		OFFSET -5.308129 -1.633274 1.361059 
		CHANNELS 3 Xrotation Zrotation Yrotation
		JOINT rShin
		{
			OFFSET 2.041588 -20.007561 0.000000 
			CHANNELS 3 Xrotation Zrotation Yrotation
			JOINT rFoot
			{
				OFFSET 0.000000 -19.190928 -1.224953 
				CHANNELS 3 Xrotation Yrotation Zrotation
				End Site
				{
					OFFSET 0.000000 -2.449906 4.627600 
				}
			}
		}
	}
}
MOTION
Frames: 15
Frame Time: 0.011111
35.346558 52.368202 15.869804 -0.796998 0.117755 -24.935843 25.499102 -4.138963 -4.217703 -20.364094 0.387367 -0.797787 -14.007135 -6.767420 -2.743391 23.482954 14.674623 -4.854888 2.424333 -4.683778 1.783845 -67.456139 -32.598724 4.423431 -44.211632 6.146678 5.906896 8.524705 12.647240 -62.688850 -2.738486 -1.140572 2.095526 71.570236 18.279728 19.490053 51.314960 -7.997482 8.690064 -8.534408 -12.637552 30.404158 -0.340914 3.696250 -1.819322 23.600382 -5.644799 -4.019148 -28.638821 9.892232 2.880403 -5.984782 -10.203435 15.867426 25.673178 5.542303 4.272183 -27.301825 -10.618937 -2.759599 
35.336636 52.364899 15.904688 -0.824540 0.087980 -24.789158 25.360916 -4.111704 -4.162873 -20.325096 0.417376 -0.788277 -14.006664 -6.755602 -2.736259 23.744221 14.525306 -4.838439 2.424333 -4.683778 1.783845 -67.534683 -32.548695 4.630518 -44.221367 6.145381 5.908241 8.524705 12.647240 -62.552135 -2.738486 -1.140572 2.095526 71.519272 18.212397 19.605433 51.346207 -8.002923 8.700444 -8.534408 -12.637552 30.492048 -0.301686 3.723258 -1.750511 23.640553 -5.644831 -4.022666 -28.564016 9.800563 2.818282 -5.845445 -10.200646 15.787439 25.652899 5.542146 4.280110 -27.371044 -10.694663 -2.796825 
35.333023 52.354069 15.927242 -0.816634 -0.062073 -24.640463 25.297457 -3.964438 -4.037095 -20.295687 0.359362 -0.777293 -14.131242 -6.668550 -2.710374 24.158445 14.354489 -4.758551 2.424333 -4.683778 1.783845 -67.566605 -32.645882 4.709385 -44.139420 6.121915 5.882118 8.524705 12.647240 -62.552135 -2.738486 -1.140572 2.095526 71.548912 18.211790 19.479563 51.314960 -7.997482 8.690064 -8.534408 -12.637552 30.316265 -0.301839 3.871304 -1.613942 23.712908 -5.634205 -4.037398 -28.378908 9.822721 2.745371 -5.689625 -10.044904 15.746601 25.642914 5.542097 4.279223 -27.455126 -10.782748 -2.857131 
35.330917 52.340538 15.951600 -0.844319 -0.198925 -24.482336 25.263805 -3.820104 -3.925912 -20.256496 0.291865 -0.756393 -14.337444 -6.688678 -2.647151 24.732452 14.369767 -4.598424 2.424333 -4.683778 1.783845 -67.619484 -32.791588 4.667077 -44.056763 6.091321 5.850370 8.524705 12.647240 -62.708382 -2.738486 -1.140572 2.095526 71.559685 18.250641 19.421335 51.283718 -7.992023 8.679692 -8.534408 -12.637552 30.218607 -0.341028 4.000192 -1.516339 23.977827 -5.614948 -4.067124 -28.263596 9.768637 2.682719 -5.404315 -9.944803 15.655987 25.473711 5.541488 4.244788 -27.490889 -10.831479 -2.884304 
35.330616 52.345650 15.966037 -0.889716 -0.119394 -24.346977 25.179674 -3.934320 -3.938195 -20.266340 0.330956 -0.747329 -14.351568 -6.842711 -2.576477 25.038254 14.553041 -4.440052 2.424333 -4.683778 1.783845 -67.701187 -32.888020 4.581176 -43.934479 6.058651 5.805633 8.524705 12.647240 -62.884167 -2.738486 -1.140572 2.095526 71.509842 18.232126 19.546478 51.356915 -8.006969 8.709673 -8.534408 -12.637552 30.443218 -0.350753 3.894410 -1.709003 24.017296 -5.615113 -4.090094 -28.364069 9.656647 2.683896 -5.377102 -10.063885 15.516804 25.464033 5.541489 4.234200 -27.515005 -10.847205 -2.908832 
35.256638 52.349258 15.973256 -0.867903 -1.429125 -24.942560 25.595718 -2.987097 -2.867438 -20.422430 0.234884 -0.560824 -14.385686 -6.673960 -2.614008 25.453651 14.043707 -4.518262 2.424333 -4.683778 1.783845 -67.731674 -32.916855 4.591688 -43.760487 6.004433 5.738358 8.524705 12.647240 -62.864639 -2.738486 -1.140572 2.095526 71.467888 18.125538 19.642683 51.420486 -8.023870 8.739390 -8.534408 -12.637552 30.706892 -0.087518 5.244665 -1.774658 24.078070 -5.615375 -4.075976 -28.998194 9.731465 2.911341 -4.626227 -8.473913 16.621836 25.461817 5.550954 4.245857 -27.656233 -11.367620 -3.183079 
35.344151 52.333622 16.026482 -1.070519 -0.134953 -24.005854 25.081581 -3.907148 -3.889106 -20.451742 0.260383 -0.737273 -14.636802 -6.204874 -2.712091 26.247417 12.910998 -4.770005 2.424333 -4.683778 1.783845 -67.730408 -32.858273 4.689350 -43.617176 5.960138 5.687781 8.524705 12.647240 -62.815807 -2.738486 -1.140572 2.095526 71.433395 17.911352 19.765512 51.524944 -8.043941 8.781283 -8.534408 -12.637552 30.980324 -0.096945 3.757178 -1.933692 24.007582 -5.615088 -4.079496 -28.384510 9.628752 2.654802 -5.086308 -10.261612 14.949969 25.523031 5.541675 4.268628 -27.506437 -10.586490 -2.807508 
35.322498 52.317383 16.054451 -1.186578 -0.118054 -23.997177 24.981981 -4.082002 -3.725801 -20.403008 0.301185 -0.679211 -14.781367 -6.111967 -2.737956 26.687948 12.533380 -4.867749 2.424333 -4.683778 1.783845 -67.790741 -32.886646 4.710373 -43.514477 5.924159 5.646321 8.524705 12.647240 -63.001350 -2.738486 -1.140572 2.095526 71.411003 17.794594 19.823378 51.691914 -8.074268 8.844262 -8.534408 -12.637552 31.117048 0.048776 3.702493 -1.746837 24.048018 -5.615158 -4.073302 -28.225637 9.650404 2.630125 -4.918345 -10.288306 15.105969 25.493378 5.541555 4.256264 -27.643847 -10.606775 -2.849335 
35.310772 52.320091 16.077606 -1.240764 -0.111113 -23.929337 24.858818 -4.159634 -3.590709 -20.285833 0.303239 -0.639537 -14.834475 -6.255602 -2.692956 26.906693 12.688558 -4.773311 2.424333 -4.683778 1.783845 -67.833092 -33.003212 4.765499 -43.392338 5.890429 5.603422 8.524705 12.647240 -63.245495 -2.738486 -1.140572 2.095526 71.430756 17.794189 19.736212 51.828739 -8.104959 8.904583 -8.534408 -12.637552 31.146345 0.205215 3.699126 -1.900296 23.843300 -5.634862 -4.048937 -28.293257 9.506808 2.617724 -4.858177 -10.286139 15.184453 25.602972 5.541868 4.275671 -27.861135 -10.625179 -2.933813 
35.304756 52.332722 16.110987 -1.330631 -0.178652 -23.869884 24.831079 -4.169872 -3.462797 -20.217354 0.236271 -0.599037 -14.998877 -6.195730 -2.648226 27.316086 12.638869 -4.646158 2.424333 -4.683778 1.783845 -67.795403 -33.101456 4.784034 -43.249149 5.845266 5.553543 8.524705 12.647240 -63.450573 -2.738486 -1.140572 2.095526 71.509987 17.802336 19.729342 51.954861 -8.131357 8.955802 -8.534408 -12.637552 31.214706 0.303025 3.735471 -2.256007 23.853626 -5.634975 -4.040122 -28.638216 9.280937 2.610586 -4.645027 -10.268890 15.142534 25.602972 5.541873 4.275672 -27.968723 -10.612092 -2.949219 
35.304455 52.337227 16.145271 -1.448136 -0.168243 -23.744038 24.805418 -4.254251 -3.463573 -20.187946 0.177990 -0.598020 -15.111660 -6.053261 -2.610876 27.610470 12.454699 -4.556504 2.424333 -4.683778 1.783845 -67.757523 -33.189941 4.724440 -43.054398 5.777783 5.480736 8.524705 12.647240 -63.636120 -2.738486 -1.140572 2.095526 71.619980 17.858686 19.674723 51.965584 -8.135250 8.965115 -8.534408 -12.637552 31.117048 0.459023 3.658499 -2.405040 23.815304 -5.625188 -4.044454 -28.718975 9.170662 2.575433 -4.477732 -10.373893 14.912457 25.624565 5.537025 4.257010 -27.911215 -10.539462 -2.893207 
35.315582 52.319782 16.170532 -1.531430 -0.060444 -23.503387 24.740147 -4.339539 -3.565911 -20.138968 0.100100 -0.616268 -15.194638 -5.886343 -2.605520 27.716366 12.284390 -4.509526 2.424333 -4.683778 1.783845 -67.701424 -33.356842 4.615519 -42.880795 5.721020 5.414483 8.524705 12.647240 -63.929089 -2.738486 -1.140572 2.095526 71.731293 17.973610 19.632881 51.965584 -8.135250 8.965115 -8.534408 -12.637552 31.038923 0.575935 3.512403 -2.115242 23.795544 -5.625171 -4.032981 -28.345823 9.064669 2.416099 -4.403612 -10.595279 14.483506 25.685083 5.531116 4.281305 -27.860424 -10.406075 -2.827413 
35.334229 52.302044 16.189177 -1.588318 0.060156 -23.243536 24.675333 -4.434579 -3.671625 -20.119307 0.031682 -0.634799 -15.191423 -5.795699 -2.569313 27.692205 12.272230 -4.423913 2.424333 -4.683778 1.783845 -67.695099 -33.522980 4.263689 -42.728058 5.675800 5.365312 8.524705 12.647240 -64.524788 -2.738486 -1.140572 2.095526 71.820641 17.991302 19.645897 52.121880 -8.160247 9.019526 -8.534408 -12.637552 31.136578 0.683957 3.347582 -1.914011 23.704054 -5.630258 -4.026048 -27.976212 9.019378 2.288856 -4.439645 -10.814910 14.116138 25.846718 5.522217 4.293453 -27.857803 -10.218450 -2.742939 
35.349865 52.301144 16.200005 -1.590407 0.143126 -23.069994 24.599213 -4.499795 -3.723933 -20.168150 0.040905 -0.634972 -15.152231 -5.812322 -2.529105 27.719248 12.292248 -4.311893 2.424333 -4.683778 1.783845 -67.777092 -33.629169 3.929262 -42.544205 5.612067 5.291989 8.524705 12.647240 -64.915413 -2.738486 -1.140572 2.095526 71.840401 17.990894 19.568491 52.205853 -8.177785 9.059485 -8.534408 -12.637552 31.097517 0.701789 3.245872 -2.020463 23.641146 -5.644999 -4.003266 -27.904192 9.020510 2.282927 -4.537672 -10.932884 13.918695 26.027908 5.511908 4.327311 -27.900103 -10.105357 -2.726013 
35.360390 52.304150 16.210833 -1.555822 0.200661 -22.953838 24.462986 -4.534751 -3.749989 -20.178041 0.109000 -0.645778 -15.248942 -5.798169 -2.450288 27.892027 12.205002 -4.175377 2.424333 -4.683778 1.783845 -67.898941 -33.734745 3.815028 -42.309593 5.532314 5.203065 8.524705 12.647240 -64.915413 -2.738486 -1.140572 2.095526 71.763374 18.080395 19.653505 52.174591 -8.172876 9.048836 -8.534408 -12.637552 31.097517 0.643951 3.187508 -2.198826 23.620720 -5.645092 -4.011244 -27.928928 9.036500 2.307240 -4.665998 -11.013164 13.781555 26.187567 5.512509 4.341436 -27.910873 -9.934520 -2.655813 
